<mxfile host="app.diagrams.net" agent="Mozilla/5.0 (Windows NT 10.0; Win64; x64) AppleWebKit/537.36 (KHTML, like Gecko) Chrome/137.0.0.0 Safari/537.36" version="27.2.0">
  <diagram name="Page-1" id="tMeV76dk6SYIOeKPtICn">
    <mxGraphModel dx="2264" dy="1267" grid="1" gridSize="10" guides="1" tooltips="1" connect="1" arrows="1" fold="1" page="1" pageScale="1" pageWidth="850" pageHeight="1100" math="0" shadow="0">
      <root>
        <mxCell id="0" />
        <mxCell id="1" parent="0" />
        <mxCell id="UvcoeG0IT_t9VYRdjxmK-1" value="" style="shape=link;html=1;rounded=0;" edge="1" parent="1">
          <mxGeometry width="100" relative="1" as="geometry">
            <mxPoint y="60" as="sourcePoint" />
            <mxPoint x="850" y="60" as="targetPoint" />
          </mxGeometry>
        </mxCell>
        <mxCell id="UvcoeG0IT_t9VYRdjxmK-2" value="" style="endArrow=none;html=1;rounded=0;" edge="1" parent="1">
          <mxGeometry width="50" height="50" relative="1" as="geometry">
            <mxPoint x="160" y="1080" as="sourcePoint" />
            <mxPoint x="160" as="targetPoint" />
          </mxGeometry>
        </mxCell>
        <mxCell id="UvcoeG0IT_t9VYRdjxmK-3" value="" style="endArrow=none;html=1;rounded=0;" edge="1" parent="1">
          <mxGeometry width="50" height="50" relative="1" as="geometry">
            <mxPoint x="320" y="1080" as="sourcePoint" />
            <mxPoint x="320" as="targetPoint" />
          </mxGeometry>
        </mxCell>
        <mxCell id="UvcoeG0IT_t9VYRdjxmK-4" value="" style="endArrow=none;html=1;rounded=0;" edge="1" parent="1">
          <mxGeometry width="50" height="50" relative="1" as="geometry">
            <mxPoint x="480" y="1080" as="sourcePoint" />
            <mxPoint x="480" as="targetPoint" />
          </mxGeometry>
        </mxCell>
        <mxCell id="UvcoeG0IT_t9VYRdjxmK-5" value="" style="endArrow=none;html=1;rounded=0;" edge="1" parent="1">
          <mxGeometry width="50" height="50" relative="1" as="geometry">
            <mxPoint x="640" y="1080" as="sourcePoint" />
            <mxPoint x="640" as="targetPoint" />
          </mxGeometry>
        </mxCell>
        <mxCell id="UvcoeG0IT_t9VYRdjxmK-6" value="KUPAC" style="text;html=1;align=center;verticalAlign=middle;whiteSpace=wrap;rounded=0;" vertex="1" parent="1">
          <mxGeometry x="50" y="10" width="60" height="30" as="geometry" />
        </mxCell>
        <mxCell id="UvcoeG0IT_t9VYRdjxmK-7" value="SUSTAV&lt;span style=&quot;color: rgba(0, 0, 0, 0); font-family: monospace; font-size: 0px; text-align: start; text-wrap-mode: nowrap;&quot;&gt;%3CmxGraphModel%3E%3Croot%3E%3CmxCell%20id%3D%220%22%2F%3E%3CmxCell%20id%3D%221%22%20parent%3D%220%22%2F%3E%3CmxCell%20id%3D%222%22%20value%3D%22KUPAC%22%20style%3D%22text%3Bhtml%3D1%3Balign%3Dcenter%3BverticalAlign%3Dmiddle%3BwhiteSpace%3Dwrap%3Brounded%3D0%3B%22%20vertex%3D%221%22%20parent%3D%221%22%3E%3CmxGeometry%20x%3D%2240%22%20y%3D%2210%22%20width%3D%2260%22%20height%3D%2230%22%20as%3D%22geometry%22%2F%3E%3C%2FmxCell%3E%3C%2Froot%3E%3C%2FmxGraphModel%3E&lt;/span&gt;" style="text;html=1;align=center;verticalAlign=middle;whiteSpace=wrap;rounded=0;" vertex="1" parent="1">
          <mxGeometry x="210" y="10" width="60" height="30" as="geometry" />
        </mxCell>
        <mxCell id="UvcoeG0IT_t9VYRdjxmK-8" value="DJELATNIK" style="text;html=1;align=center;verticalAlign=middle;whiteSpace=wrap;rounded=0;" vertex="1" parent="1">
          <mxGeometry x="370" y="10" width="60" height="30" as="geometry" />
        </mxCell>
        <mxCell id="UvcoeG0IT_t9VYRdjxmK-9" value="DOBAVLJAČ" style="text;html=1;align=center;verticalAlign=middle;whiteSpace=wrap;rounded=0;" vertex="1" parent="1">
          <mxGeometry x="530" y="10" width="60" height="30" as="geometry" />
        </mxCell>
        <mxCell id="UvcoeG0IT_t9VYRdjxmK-10" value="ADMIN" style="text;html=1;align=center;verticalAlign=middle;whiteSpace=wrap;rounded=0;" vertex="1" parent="1">
          <mxGeometry x="720" y="10" width="60" height="30" as="geometry" />
        </mxCell>
        <mxCell id="UvcoeG0IT_t9VYRdjxmK-28" style="edgeStyle=orthogonalEdgeStyle;rounded=0;orthogonalLoop=1;jettySize=auto;html=1;exitX=0.5;exitY=1;exitDx=0;exitDy=0;entryX=0.5;entryY=0;entryDx=0;entryDy=0;" edge="1" parent="1" source="UvcoeG0IT_t9VYRdjxmK-11" target="UvcoeG0IT_t9VYRdjxmK-12">
          <mxGeometry relative="1" as="geometry" />
        </mxCell>
        <mxCell id="UvcoeG0IT_t9VYRdjxmK-11" value="" style="ellipse;whiteSpace=wrap;html=1;aspect=fixed;" vertex="1" parent="1">
          <mxGeometry x="220" y="80" width="40" height="40" as="geometry" />
        </mxCell>
        <mxCell id="UvcoeG0IT_t9VYRdjxmK-17" style="edgeStyle=orthogonalEdgeStyle;rounded=0;orthogonalLoop=1;jettySize=auto;html=1;exitX=0.5;exitY=1;exitDx=0;exitDy=0;entryX=0.5;entryY=0;entryDx=0;entryDy=0;" edge="1" parent="1" source="UvcoeG0IT_t9VYRdjxmK-12" target="UvcoeG0IT_t9VYRdjxmK-13">
          <mxGeometry relative="1" as="geometry" />
        </mxCell>
        <mxCell id="UvcoeG0IT_t9VYRdjxmK-12" value="&lt;font style=&quot;font-size: 10px;&quot;&gt;POKRETANJE STRANICE&lt;/font&gt;" style="rounded=1;whiteSpace=wrap;html=1;" vertex="1" parent="1">
          <mxGeometry x="192.5" y="150" width="95" height="50" as="geometry" />
        </mxCell>
        <mxCell id="UvcoeG0IT_t9VYRdjxmK-23" style="edgeStyle=orthogonalEdgeStyle;rounded=0;orthogonalLoop=1;jettySize=auto;html=1;exitX=1;exitY=0.5;exitDx=0;exitDy=0;entryX=1;entryY=0.5;entryDx=0;entryDy=0;" edge="1" parent="1" source="UvcoeG0IT_t9VYRdjxmK-13" target="UvcoeG0IT_t9VYRdjxmK-16">
          <mxGeometry relative="1" as="geometry" />
        </mxCell>
        <mxCell id="UvcoeG0IT_t9VYRdjxmK-27" value="DA" style="edgeLabel;html=1;align=center;verticalAlign=middle;resizable=0;points=[];" vertex="1" connectable="0" parent="UvcoeG0IT_t9VYRdjxmK-23">
          <mxGeometry x="-0.7783" y="-1" relative="1" as="geometry">
            <mxPoint y="-1" as="offset" />
          </mxGeometry>
        </mxCell>
        <mxCell id="UvcoeG0IT_t9VYRdjxmK-25" style="edgeStyle=orthogonalEdgeStyle;rounded=0;orthogonalLoop=1;jettySize=auto;html=1;exitX=0;exitY=0.5;exitDx=0;exitDy=0;entryX=0;entryY=0;entryDx=0;entryDy=0;" edge="1" parent="1" source="UvcoeG0IT_t9VYRdjxmK-13" target="UvcoeG0IT_t9VYRdjxmK-14">
          <mxGeometry relative="1" as="geometry" />
        </mxCell>
        <mxCell id="UvcoeG0IT_t9VYRdjxmK-26" value="NE" style="edgeLabel;html=1;align=center;verticalAlign=middle;resizable=0;points=[];" vertex="1" connectable="0" parent="UvcoeG0IT_t9VYRdjxmK-25">
          <mxGeometry x="-0.44" y="-2" relative="1" as="geometry">
            <mxPoint as="offset" />
          </mxGeometry>
        </mxCell>
        <mxCell id="UvcoeG0IT_t9VYRdjxmK-13" value="&lt;font style=&quot;font-size: 10px;&quot;&gt;REGISTRACIJA&lt;/font&gt;" style="rhombus;whiteSpace=wrap;html=1;" vertex="1" parent="1">
          <mxGeometry x="200" y="220" width="80" height="80" as="geometry" />
        </mxCell>
        <mxCell id="UvcoeG0IT_t9VYRdjxmK-24" style="edgeStyle=orthogonalEdgeStyle;rounded=0;orthogonalLoop=1;jettySize=auto;html=1;exitX=0;exitY=1;exitDx=0;exitDy=0;entryX=0;entryY=0.5;entryDx=0;entryDy=0;" edge="1" parent="1" source="UvcoeG0IT_t9VYRdjxmK-14" target="UvcoeG0IT_t9VYRdjxmK-16">
          <mxGeometry relative="1" as="geometry" />
        </mxCell>
        <mxCell id="UvcoeG0IT_t9VYRdjxmK-14" value="&lt;font style=&quot;font-size: 10px;&quot;&gt;UNOS PODATAKA&lt;/font&gt;" style="rounded=1;whiteSpace=wrap;html=1;" vertex="1" parent="1">
          <mxGeometry x="170" y="330" width="60" height="40" as="geometry" />
        </mxCell>
        <mxCell id="UvcoeG0IT_t9VYRdjxmK-42" style="edgeStyle=orthogonalEdgeStyle;rounded=0;orthogonalLoop=1;jettySize=auto;html=1;exitX=0.5;exitY=1;exitDx=0;exitDy=0;entryX=0.5;entryY=0;entryDx=0;entryDy=0;" edge="1" parent="1" source="UvcoeG0IT_t9VYRdjxmK-16" target="UvcoeG0IT_t9VYRdjxmK-30">
          <mxGeometry relative="1" as="geometry" />
        </mxCell>
        <mxCell id="UvcoeG0IT_t9VYRdjxmK-60" style="edgeStyle=orthogonalEdgeStyle;rounded=0;orthogonalLoop=1;jettySize=auto;html=1;exitX=0.5;exitY=1;exitDx=0;exitDy=0;entryX=0.5;entryY=0;entryDx=0;entryDy=0;" edge="1" parent="1" source="UvcoeG0IT_t9VYRdjxmK-16" target="UvcoeG0IT_t9VYRdjxmK-56">
          <mxGeometry relative="1" as="geometry" />
        </mxCell>
        <mxCell id="UvcoeG0IT_t9VYRdjxmK-70" style="edgeStyle=orthogonalEdgeStyle;rounded=0;orthogonalLoop=1;jettySize=auto;html=1;exitX=0.5;exitY=1;exitDx=0;exitDy=0;entryX=0.5;entryY=0;entryDx=0;entryDy=0;" edge="1" parent="1" source="UvcoeG0IT_t9VYRdjxmK-16" target="UvcoeG0IT_t9VYRdjxmK-68">
          <mxGeometry relative="1" as="geometry" />
        </mxCell>
        <mxCell id="UvcoeG0IT_t9VYRdjxmK-76" style="edgeStyle=orthogonalEdgeStyle;rounded=0;orthogonalLoop=1;jettySize=auto;html=1;exitX=0.5;exitY=1;exitDx=0;exitDy=0;entryX=0.5;entryY=0;entryDx=0;entryDy=0;" edge="1" parent="1" source="UvcoeG0IT_t9VYRdjxmK-16" target="UvcoeG0IT_t9VYRdjxmK-74">
          <mxGeometry relative="1" as="geometry" />
        </mxCell>
        <mxCell id="UvcoeG0IT_t9VYRdjxmK-85" style="edgeStyle=orthogonalEdgeStyle;rounded=0;orthogonalLoop=1;jettySize=auto;html=1;exitX=0.5;exitY=1;exitDx=0;exitDy=0;entryX=0.5;entryY=0;entryDx=0;entryDy=0;" edge="1" parent="1" source="UvcoeG0IT_t9VYRdjxmK-16" target="UvcoeG0IT_t9VYRdjxmK-37">
          <mxGeometry relative="1" as="geometry" />
        </mxCell>
        <mxCell id="UvcoeG0IT_t9VYRdjxmK-16" value="&lt;font style=&quot;font-size: 10px;&quot;&gt;PRIJAVA&lt;/font&gt;" style="rounded=1;whiteSpace=wrap;html=1;" vertex="1" parent="1">
          <mxGeometry x="192.5" y="400" width="95" height="40" as="geometry" />
        </mxCell>
        <mxCell id="UvcoeG0IT_t9VYRdjxmK-43" style="edgeStyle=orthogonalEdgeStyle;rounded=0;orthogonalLoop=1;jettySize=auto;html=1;exitX=0.5;exitY=1;exitDx=0;exitDy=0;entryX=0.5;entryY=0;entryDx=0;entryDy=0;" edge="1" parent="1" source="UvcoeG0IT_t9VYRdjxmK-30" target="UvcoeG0IT_t9VYRdjxmK-31">
          <mxGeometry relative="1" as="geometry" />
        </mxCell>
        <mxCell id="UvcoeG0IT_t9VYRdjxmK-30" value="&lt;font style=&quot;font-size: 10px;&quot;&gt;PREGLED VOĆA&lt;/font&gt;" style="rounded=1;whiteSpace=wrap;html=1;" vertex="1" parent="1">
          <mxGeometry x="32.5" y="490" width="95" height="40" as="geometry" />
        </mxCell>
        <mxCell id="UvcoeG0IT_t9VYRdjxmK-44" style="edgeStyle=orthogonalEdgeStyle;rounded=0;orthogonalLoop=1;jettySize=auto;html=1;exitX=0.5;exitY=1;exitDx=0;exitDy=0;" edge="1" parent="1" source="UvcoeG0IT_t9VYRdjxmK-31" target="UvcoeG0IT_t9VYRdjxmK-32">
          <mxGeometry relative="1" as="geometry" />
        </mxCell>
        <mxCell id="UvcoeG0IT_t9VYRdjxmK-31" value="&lt;font style=&quot;font-size: 10px;&quot;&gt;ODABIR I DODAVANJE U KOŠARICU&lt;/font&gt;" style="rounded=1;whiteSpace=wrap;html=1;" vertex="1" parent="1">
          <mxGeometry x="32.5" y="560" width="95" height="40" as="geometry" />
        </mxCell>
        <mxCell id="UvcoeG0IT_t9VYRdjxmK-45" style="edgeStyle=orthogonalEdgeStyle;rounded=0;orthogonalLoop=1;jettySize=auto;html=1;exitX=0.5;exitY=1;exitDx=0;exitDy=0;entryX=0.5;entryY=0;entryDx=0;entryDy=0;" edge="1" parent="1" source="UvcoeG0IT_t9VYRdjxmK-32" target="UvcoeG0IT_t9VYRdjxmK-34">
          <mxGeometry relative="1" as="geometry" />
        </mxCell>
        <mxCell id="UvcoeG0IT_t9VYRdjxmK-32" value="&lt;font style=&quot;font-size: 10px;&quot;&gt;UNOS PODATAKA ZA DOSTAVU&lt;/font&gt;" style="rounded=1;whiteSpace=wrap;html=1;" vertex="1" parent="1">
          <mxGeometry x="32.5" y="630" width="95" height="40" as="geometry" />
        </mxCell>
        <mxCell id="UvcoeG0IT_t9VYRdjxmK-46" style="edgeStyle=orthogonalEdgeStyle;rounded=0;orthogonalLoop=1;jettySize=auto;html=1;exitX=0.5;exitY=1;exitDx=0;exitDy=0;entryX=0.5;entryY=0;entryDx=0;entryDy=0;" edge="1" parent="1" source="UvcoeG0IT_t9VYRdjxmK-34" target="UvcoeG0IT_t9VYRdjxmK-35">
          <mxGeometry relative="1" as="geometry" />
        </mxCell>
        <mxCell id="UvcoeG0IT_t9VYRdjxmK-48" value="&lt;font style=&quot;font-size: 9px;&quot;&gt;POUZEĆEM&lt;/font&gt;" style="edgeLabel;html=1;align=center;verticalAlign=middle;resizable=0;points=[];" vertex="1" connectable="0" parent="UvcoeG0IT_t9VYRdjxmK-46">
          <mxGeometry x="-0.5333" y="-3" relative="1" as="geometry">
            <mxPoint x="-27" y="3" as="offset" />
          </mxGeometry>
        </mxCell>
        <mxCell id="UvcoeG0IT_t9VYRdjxmK-49" style="edgeStyle=orthogonalEdgeStyle;rounded=0;orthogonalLoop=1;jettySize=auto;html=1;exitX=1;exitY=0.5;exitDx=0;exitDy=0;entryX=0;entryY=0.25;entryDx=0;entryDy=0;" edge="1" parent="1" source="UvcoeG0IT_t9VYRdjxmK-34" target="UvcoeG0IT_t9VYRdjxmK-37">
          <mxGeometry relative="1" as="geometry">
            <Array as="points">
              <mxPoint x="170" y="740" />
              <mxPoint x="170" y="500" />
            </Array>
          </mxGeometry>
        </mxCell>
        <mxCell id="UvcoeG0IT_t9VYRdjxmK-50" value="&lt;font style=&quot;font-size: 9px;&quot;&gt;KARTICA&lt;/font&gt;" style="edgeLabel;html=1;align=center;verticalAlign=middle;resizable=0;points=[];" vertex="1" connectable="0" parent="UvcoeG0IT_t9VYRdjxmK-49">
          <mxGeometry x="-0.84" y="-1" relative="1" as="geometry">
            <mxPoint x="-15" y="-11" as="offset" />
          </mxGeometry>
        </mxCell>
        <mxCell id="UvcoeG0IT_t9VYRdjxmK-34" value="&lt;font style=&quot;font-size: 10px;&quot;&gt;NAČIN PLAĆANJA&lt;/font&gt;" style="rhombus;whiteSpace=wrap;html=1;" vertex="1" parent="1">
          <mxGeometry x="40" y="700" width="80" height="80" as="geometry" />
        </mxCell>
        <mxCell id="UvcoeG0IT_t9VYRdjxmK-47" style="edgeStyle=orthogonalEdgeStyle;rounded=0;orthogonalLoop=1;jettySize=auto;html=1;exitX=0.5;exitY=1;exitDx=0;exitDy=0;entryX=0.5;entryY=0;entryDx=0;entryDy=0;" edge="1" parent="1" source="UvcoeG0IT_t9VYRdjxmK-35" target="UvcoeG0IT_t9VYRdjxmK-36">
          <mxGeometry relative="1" as="geometry" />
        </mxCell>
        <mxCell id="UvcoeG0IT_t9VYRdjxmK-54" style="edgeStyle=orthogonalEdgeStyle;rounded=0;orthogonalLoop=1;jettySize=auto;html=1;exitX=1;exitY=0.5;exitDx=0;exitDy=0;entryX=0;entryY=0.5;entryDx=0;entryDy=0;" edge="1" parent="1" source="UvcoeG0IT_t9VYRdjxmK-35" target="UvcoeG0IT_t9VYRdjxmK-39">
          <mxGeometry relative="1" as="geometry">
            <Array as="points">
              <mxPoint x="180" y="830" />
              <mxPoint x="180" y="650" />
            </Array>
          </mxGeometry>
        </mxCell>
        <mxCell id="UvcoeG0IT_t9VYRdjxmK-35" value="&lt;font style=&quot;font-size: 10px;&quot;&gt;POTVRĐIVANJE NARUDŽBE&lt;/font&gt;" style="rounded=1;whiteSpace=wrap;html=1;" vertex="1" parent="1">
          <mxGeometry x="32.5" y="810" width="95" height="40" as="geometry" />
        </mxCell>
        <mxCell id="UvcoeG0IT_t9VYRdjxmK-81" style="edgeStyle=orthogonalEdgeStyle;rounded=0;orthogonalLoop=1;jettySize=auto;html=1;exitX=0.5;exitY=1;exitDx=0;exitDy=0;entryX=0;entryY=0.5;entryDx=0;entryDy=0;" edge="1" parent="1" source="UvcoeG0IT_t9VYRdjxmK-36" target="UvcoeG0IT_t9VYRdjxmK-78">
          <mxGeometry relative="1" as="geometry" />
        </mxCell>
        <mxCell id="UvcoeG0IT_t9VYRdjxmK-36" value="&lt;font style=&quot;font-size: 10px;&quot;&gt;PREGLED POVJESTI KUPNJE&lt;/font&gt;" style="rounded=1;whiteSpace=wrap;html=1;" vertex="1" parent="1">
          <mxGeometry x="32.5" y="880" width="95" height="40" as="geometry" />
        </mxCell>
        <mxCell id="UvcoeG0IT_t9VYRdjxmK-51" style="edgeStyle=orthogonalEdgeStyle;rounded=0;orthogonalLoop=1;jettySize=auto;html=1;exitX=0.5;exitY=1;exitDx=0;exitDy=0;entryX=0.5;entryY=0;entryDx=0;entryDy=0;" edge="1" parent="1" source="UvcoeG0IT_t9VYRdjxmK-37" target="UvcoeG0IT_t9VYRdjxmK-38">
          <mxGeometry relative="1" as="geometry" />
        </mxCell>
        <mxCell id="UvcoeG0IT_t9VYRdjxmK-37" value="&lt;font style=&quot;font-size: 10px;&quot;&gt;PROVJERAVA ISPRAVNOSTI PODATAKA&lt;/font&gt;&lt;span style=&quot;color: rgba(0, 0, 0, 0); font-family: monospace; font-size: 0px; text-align: start; text-wrap-mode: nowrap;&quot;&gt;%3CmxGraphModel%3E%3Croot%3E%3CmxCell%20id%3D%220%22%2F%3E%3CmxCell%20id%3D%221%22%20parent%3D%220%22%2F%3E%3CmxCell%20id%3D%222%22%20value%3D%22%26lt%3Bfont%20style%3D%26quot%3Bfont-size%3A%2010px%3B%26quot%3B%26gt%3BPOTVR%C4%90IVANJE%20NARUD%C5%BDBE%26lt%3B%2Ffont%26gt%3B%22%20style%3D%22rounded%3D1%3BwhiteSpace%3Dwrap%3Bhtml%3D1%3B%22%20vertex%3D%221%22%20parent%3D%221%22%3E%3CmxGeometry%20x%3D%2232.5%22%20y%3D%22810%22%20width%3D%2295%22%20height%3D%2240%22%20as%3D%22geometry%22%2F%3E%3C%2FmxCell%3E%3C%2Froot%3E%3C%2FmxGraphModel%3E&lt;/span&gt;" style="rounded=1;whiteSpace=wrap;html=1;" vertex="1" parent="1">
          <mxGeometry x="192.5" y="490" width="95" height="40" as="geometry" />
        </mxCell>
        <mxCell id="UvcoeG0IT_t9VYRdjxmK-52" style="edgeStyle=orthogonalEdgeStyle;rounded=0;orthogonalLoop=1;jettySize=auto;html=1;exitX=0.5;exitY=1;exitDx=0;exitDy=0;entryX=0.5;entryY=0;entryDx=0;entryDy=0;" edge="1" parent="1" source="UvcoeG0IT_t9VYRdjxmK-38" target="UvcoeG0IT_t9VYRdjxmK-39">
          <mxGeometry relative="1" as="geometry" />
        </mxCell>
        <mxCell id="UvcoeG0IT_t9VYRdjxmK-38" value="&lt;font style=&quot;font-size: 10px;&quot;&gt;POZIVANJE SUSTAVA PLAĆANJA&lt;/font&gt;" style="rounded=1;whiteSpace=wrap;html=1;" vertex="1" parent="1">
          <mxGeometry x="192.5" y="560" width="95" height="40" as="geometry" />
        </mxCell>
        <mxCell id="UvcoeG0IT_t9VYRdjxmK-53" style="edgeStyle=orthogonalEdgeStyle;rounded=0;orthogonalLoop=1;jettySize=auto;html=1;exitX=0.5;exitY=1;exitDx=0;exitDy=0;" edge="1" parent="1" source="UvcoeG0IT_t9VYRdjxmK-39" target="UvcoeG0IT_t9VYRdjxmK-40">
          <mxGeometry relative="1" as="geometry" />
        </mxCell>
        <mxCell id="UvcoeG0IT_t9VYRdjxmK-39" value="&lt;font style=&quot;font-size: 10px;&quot;&gt;SPREMANJE NARUDŽBE U BAZU&lt;/font&gt;" style="rounded=1;whiteSpace=wrap;html=1;" vertex="1" parent="1">
          <mxGeometry x="192.5" y="630" width="95" height="40" as="geometry" />
        </mxCell>
        <mxCell id="UvcoeG0IT_t9VYRdjxmK-67" style="edgeStyle=orthogonalEdgeStyle;rounded=0;orthogonalLoop=1;jettySize=auto;html=1;exitX=1;exitY=0.5;exitDx=0;exitDy=0;entryX=0;entryY=0.5;entryDx=0;entryDy=0;" edge="1" parent="1" source="UvcoeG0IT_t9VYRdjxmK-40" target="UvcoeG0IT_t9VYRdjxmK-56">
          <mxGeometry relative="1" as="geometry">
            <Array as="points">
              <mxPoint x="310" y="720" />
              <mxPoint x="310" y="510" />
            </Array>
          </mxGeometry>
        </mxCell>
        <mxCell id="UvcoeG0IT_t9VYRdjxmK-40" value="&lt;font style=&quot;font-size: 10px;&quot;&gt;OBAVJEŠTAVA ZAPOSLENIKA O NARUDŽBI&lt;/font&gt;" style="rounded=1;whiteSpace=wrap;html=1;" vertex="1" parent="1">
          <mxGeometry x="192.5" y="700" width="95" height="40" as="geometry" />
        </mxCell>
        <mxCell id="UvcoeG0IT_t9VYRdjxmK-72" style="edgeStyle=orthogonalEdgeStyle;rounded=0;orthogonalLoop=1;jettySize=auto;html=1;exitX=1;exitY=0.75;exitDx=0;exitDy=0;entryX=0;entryY=0.5;entryDx=0;entryDy=0;" edge="1" parent="1" source="UvcoeG0IT_t9VYRdjxmK-41" target="UvcoeG0IT_t9VYRdjxmK-68">
          <mxGeometry relative="1" as="geometry">
            <Array as="points">
              <mxPoint x="250" y="800" />
              <mxPoint x="250" y="830" />
              <mxPoint x="490" y="830" />
              <mxPoint x="490" y="510" />
            </Array>
          </mxGeometry>
        </mxCell>
        <mxCell id="UvcoeG0IT_t9VYRdjxmK-41" value="&lt;font style=&quot;font-size: 10px;&quot;&gt;AUTOMATSKA NARUDŽBA OD DOBAVLJAČA&lt;/font&gt;" style="rounded=1;whiteSpace=wrap;html=1;" vertex="1" parent="1">
          <mxGeometry x="192.5" y="770" width="95" height="40" as="geometry" />
        </mxCell>
        <mxCell id="UvcoeG0IT_t9VYRdjxmK-61" style="edgeStyle=orthogonalEdgeStyle;rounded=0;orthogonalLoop=1;jettySize=auto;html=1;exitX=0.5;exitY=1;exitDx=0;exitDy=0;entryX=0.5;entryY=0;entryDx=0;entryDy=0;" edge="1" parent="1" source="UvcoeG0IT_t9VYRdjxmK-56" target="UvcoeG0IT_t9VYRdjxmK-57">
          <mxGeometry relative="1" as="geometry" />
        </mxCell>
        <mxCell id="UvcoeG0IT_t9VYRdjxmK-56" value="&lt;font style=&quot;font-size: 10px;&quot;&gt;PREGLED NOVE NARUDŽBE&lt;/font&gt;" style="rounded=1;whiteSpace=wrap;html=1;" vertex="1" parent="1">
          <mxGeometry x="352.5" y="490" width="95" height="40" as="geometry" />
        </mxCell>
        <mxCell id="UvcoeG0IT_t9VYRdjxmK-62" style="edgeStyle=orthogonalEdgeStyle;rounded=0;orthogonalLoop=1;jettySize=auto;html=1;exitX=0;exitY=0.5;exitDx=0;exitDy=0;entryX=1;entryY=0.5;entryDx=0;entryDy=0;" edge="1" parent="1" source="UvcoeG0IT_t9VYRdjxmK-57" target="UvcoeG0IT_t9VYRdjxmK-41">
          <mxGeometry relative="1" as="geometry">
            <Array as="points">
              <mxPoint x="330" y="620" />
              <mxPoint x="330" y="790" />
            </Array>
          </mxGeometry>
        </mxCell>
        <mxCell id="UvcoeG0IT_t9VYRdjxmK-64" value="NE" style="edgeLabel;html=1;align=center;verticalAlign=middle;resizable=0;points=[];" vertex="1" connectable="0" parent="UvcoeG0IT_t9VYRdjxmK-62">
          <mxGeometry x="-0.8186" relative="1" as="geometry">
            <mxPoint as="offset" />
          </mxGeometry>
        </mxCell>
        <mxCell id="UvcoeG0IT_t9VYRdjxmK-63" style="edgeStyle=orthogonalEdgeStyle;rounded=0;orthogonalLoop=1;jettySize=auto;html=1;exitX=1;exitY=0.5;exitDx=0;exitDy=0;entryX=1;entryY=0.5;entryDx=0;entryDy=0;" edge="1" parent="1" source="UvcoeG0IT_t9VYRdjxmK-57" target="UvcoeG0IT_t9VYRdjxmK-59">
          <mxGeometry relative="1" as="geometry" />
        </mxCell>
        <mxCell id="UvcoeG0IT_t9VYRdjxmK-65" value="DA" style="edgeLabel;html=1;align=center;verticalAlign=middle;resizable=0;points=[];" vertex="1" connectable="0" parent="UvcoeG0IT_t9VYRdjxmK-63">
          <mxGeometry x="-0.8529" y="-1" relative="1" as="geometry">
            <mxPoint as="offset" />
          </mxGeometry>
        </mxCell>
        <mxCell id="UvcoeG0IT_t9VYRdjxmK-57" value="&lt;font style=&quot;font-size: 10px;&quot;&gt;IMA VOĆA NA SKLADIŠTU&lt;/font&gt;" style="rhombus;whiteSpace=wrap;html=1;" vertex="1" parent="1">
          <mxGeometry x="360" y="580" width="80" height="80" as="geometry" />
        </mxCell>
        <mxCell id="UvcoeG0IT_t9VYRdjxmK-66" style="edgeStyle=orthogonalEdgeStyle;rounded=0;orthogonalLoop=1;jettySize=auto;html=1;exitX=0.5;exitY=1;exitDx=0;exitDy=0;entryX=0.5;entryY=0;entryDx=0;entryDy=0;" edge="1" parent="1" source="UvcoeG0IT_t9VYRdjxmK-58" target="UvcoeG0IT_t9VYRdjxmK-59">
          <mxGeometry relative="1" as="geometry" />
        </mxCell>
        <mxCell id="UvcoeG0IT_t9VYRdjxmK-58" value="&lt;font style=&quot;font-size: 10px;&quot;&gt;PRIJEM ROBE I PROVJERA KVALITETE&lt;/font&gt;" style="rounded=1;whiteSpace=wrap;html=1;" vertex="1" parent="1">
          <mxGeometry x="352.5" y="700" width="95" height="40" as="geometry" />
        </mxCell>
        <mxCell id="UvcoeG0IT_t9VYRdjxmK-82" style="edgeStyle=orthogonalEdgeStyle;rounded=0;orthogonalLoop=1;jettySize=auto;html=1;exitX=0.5;exitY=1;exitDx=0;exitDy=0;entryX=0.5;entryY=0;entryDx=0;entryDy=0;" edge="1" parent="1" source="UvcoeG0IT_t9VYRdjxmK-59" target="UvcoeG0IT_t9VYRdjxmK-78">
          <mxGeometry relative="1" as="geometry" />
        </mxCell>
        <mxCell id="UvcoeG0IT_t9VYRdjxmK-59" value="&lt;font style=&quot;font-size: 10px;&quot;&gt;PAKIRANJE I SLANJE NARUDŽBE&lt;/font&gt;" style="rounded=1;whiteSpace=wrap;html=1;" vertex="1" parent="1">
          <mxGeometry x="352.5" y="770" width="95" height="40" as="geometry" />
        </mxCell>
        <mxCell id="UvcoeG0IT_t9VYRdjxmK-71" style="edgeStyle=orthogonalEdgeStyle;rounded=0;orthogonalLoop=1;jettySize=auto;html=1;exitX=0.5;exitY=1;exitDx=0;exitDy=0;entryX=0.5;entryY=0;entryDx=0;entryDy=0;" edge="1" parent="1" source="UvcoeG0IT_t9VYRdjxmK-68" target="UvcoeG0IT_t9VYRdjxmK-69">
          <mxGeometry relative="1" as="geometry" />
        </mxCell>
        <mxCell id="UvcoeG0IT_t9VYRdjxmK-68" value="&lt;font style=&quot;font-size: 10px;&quot;&gt;PRIMANJE NARUDŽBE&lt;/font&gt;" style="rounded=1;whiteSpace=wrap;html=1;" vertex="1" parent="1">
          <mxGeometry x="500" y="490" width="95" height="40" as="geometry" />
        </mxCell>
        <mxCell id="UvcoeG0IT_t9VYRdjxmK-73" style="edgeStyle=orthogonalEdgeStyle;rounded=0;orthogonalLoop=1;jettySize=auto;html=1;exitX=0.5;exitY=1;exitDx=0;exitDy=0;entryX=1;entryY=0.5;entryDx=0;entryDy=0;" edge="1" parent="1" source="UvcoeG0IT_t9VYRdjxmK-69" target="UvcoeG0IT_t9VYRdjxmK-58">
          <mxGeometry relative="1" as="geometry" />
        </mxCell>
        <mxCell id="UvcoeG0IT_t9VYRdjxmK-83" style="edgeStyle=orthogonalEdgeStyle;rounded=0;orthogonalLoop=1;jettySize=auto;html=1;exitX=0.75;exitY=1;exitDx=0;exitDy=0;entryX=1;entryY=0.5;entryDx=0;entryDy=0;" edge="1" parent="1" source="UvcoeG0IT_t9VYRdjxmK-69" target="UvcoeG0IT_t9VYRdjxmK-78">
          <mxGeometry relative="1" as="geometry" />
        </mxCell>
        <mxCell id="UvcoeG0IT_t9VYRdjxmK-69" value="&lt;font style=&quot;font-size: 10px;&quot;&gt;ISPORUKA&lt;/font&gt;" style="rounded=1;whiteSpace=wrap;html=1;" vertex="1" parent="1">
          <mxGeometry x="500" y="560" width="95" height="40" as="geometry" />
        </mxCell>
        <mxCell id="UvcoeG0IT_t9VYRdjxmK-77" style="edgeStyle=orthogonalEdgeStyle;rounded=0;orthogonalLoop=1;jettySize=auto;html=1;exitX=0.5;exitY=1;exitDx=0;exitDy=0;entryX=0.5;entryY=0;entryDx=0;entryDy=0;" edge="1" parent="1" source="UvcoeG0IT_t9VYRdjxmK-74" target="UvcoeG0IT_t9VYRdjxmK-75">
          <mxGeometry relative="1" as="geometry" />
        </mxCell>
        <mxCell id="UvcoeG0IT_t9VYRdjxmK-74" value="&lt;font style=&quot;font-size: 10px;&quot;&gt;UPRAVLJANJE KORISNICIMA&lt;/font&gt;" style="rounded=1;whiteSpace=wrap;html=1;" vertex="1" parent="1">
          <mxGeometry x="685" y="490" width="95" height="40" as="geometry" />
        </mxCell>
        <mxCell id="UvcoeG0IT_t9VYRdjxmK-84" style="edgeStyle=orthogonalEdgeStyle;rounded=0;orthogonalLoop=1;jettySize=auto;html=1;exitX=0.5;exitY=1;exitDx=0;exitDy=0;entryX=1;entryY=0.75;entryDx=0;entryDy=0;" edge="1" parent="1" source="UvcoeG0IT_t9VYRdjxmK-75" target="UvcoeG0IT_t9VYRdjxmK-78">
          <mxGeometry relative="1" as="geometry" />
        </mxCell>
        <mxCell id="UvcoeG0IT_t9VYRdjxmK-75" value="&lt;font style=&quot;font-size: 10px;&quot;&gt;ODRŽAVANJE SUSTAVA&lt;/font&gt;" style="rounded=1;whiteSpace=wrap;html=1;" vertex="1" parent="1">
          <mxGeometry x="685" y="560" width="95" height="40" as="geometry" />
        </mxCell>
        <mxCell id="UvcoeG0IT_t9VYRdjxmK-80" style="edgeStyle=orthogonalEdgeStyle;rounded=0;orthogonalLoop=1;jettySize=auto;html=1;exitX=0.5;exitY=1;exitDx=0;exitDy=0;entryX=0.5;entryY=0;entryDx=0;entryDy=0;" edge="1" parent="1" source="UvcoeG0IT_t9VYRdjxmK-78" target="UvcoeG0IT_t9VYRdjxmK-79">
          <mxGeometry relative="1" as="geometry" />
        </mxCell>
        <mxCell id="UvcoeG0IT_t9VYRdjxmK-78" value="&lt;font style=&quot;font-size: 10px;&quot;&gt;ODJAVA&lt;/font&gt;" style="rounded=1;whiteSpace=wrap;html=1;" vertex="1" parent="1">
          <mxGeometry x="352.5" y="940" width="95" height="40" as="geometry" />
        </mxCell>
        <mxCell id="UvcoeG0IT_t9VYRdjxmK-79" value="" style="ellipse;whiteSpace=wrap;html=1;aspect=fixed;" vertex="1" parent="1">
          <mxGeometry x="380" y="1020" width="40" height="40" as="geometry" />
        </mxCell>
      </root>
    </mxGraphModel>
  </diagram>
</mxfile>
